# File produced by Open Asset Import Library (http://www.assimp.sf.net)
# (assimp v3.1.187496374)

mtllib Monopoly-House.obj.mtl

# 38 vertex positions
v  11.113 0 4.962
v  0 -0.794 4.962
v  0 0 4.962
v  11.113 -0.794 4.962
v  0 0 0
v  11.113 0 0
v  11.113 11.907 4.962
v  0 11.113 4.962
v  0 11.907 4.962
v  11.113 11.113 4.962
v  11.113 11.113 0
v  0 11.113 0
v  4.181 4.762 9.725
v  4.181 6.35 9.725
v  3.968 5.556 9.725
v  4.762 4.181 9.725
v  4.762 6.931 9.725
v  5.556 3.968 9.725
v  5.556 7.144 9.725
v  6.35 4.181 9.725
v  6.35 6.931 9.725
v  6.931 4.762 9.725
v  6.931 6.35 9.725
v  7.144 5.556 9.725
v  6.931 6.35 7.74087
v  7.144 5.556 8.138
v  6.931 4.762 7.74087
v  6.35 4.181 7.45028
v  5.556 3.968 7.34375
v  4.762 4.181 7.45028
v  4.181 4.762 7.74087
v  3.968 5.556 8.138
v  4.181 6.35 7.74087
v  11.113 5.556 8.138
v  0 5.556 8.138
v  4.762 6.931 7.45028
v  5.556 7.144 7.34375
v  6.35 6.931 7.45028

# 0 UV coordinates

# 20 vertex normals
vn 0 0 -1
vn 0 -1 0
vn 0 1 0
vn 0 0 1
vn 0.96585 0.259101 -2.61478e-18
vn 0.96585 -0.259101 5.22958e-18
vn 0.707107 -0.707107 0
vn 0.259101 -0.96585 1.16734e-18
vn -0.259101 -0.96585 -3.89114e-19
vn -0.707107 -0.707106 2.53307e-18
vn -0.96585 -0.259101 7.84437e-18
vn -0.96585 0.2591 -5.22957e-18
vn 1 0 0
vn -1 0 0
vn -0.707106 0.707107 2.27977e-17
vn -0.259101 0.96585 -3.50203e-18
vn -5.01753e-10 0.447267 0.8944
vn -1.91247e-12 -0.447326 0.894371
vn 0.259101 0.96585 1.55646e-18
vn 0.707106 0.707107 7.59922e-18

# Mesh 'Monopoly' with 72 faces
g Monopoly
usemtl DefaultMaterial
f  1//1 2//1 3//1
f  2//1 1//1 4//1
f  1//2 5//2 6//2
f  5//2 1//2 3//2
f  7//1 8//1 9//1
f  8//1 7//1 10//1
f  8//3 11//3 12//3
f  11//3 8//3 10//3
f  13//4 14//4 15//4
f  14//4 13//4 16//4
f  14//4 16//4 17//4
f  17//4 16//4 18//4
f  17//4 18//4 19//4
f  19//4 18//4 20//4
f  19//4 20//4 21//4
f  21//4 20//4 22//4
f  21//4 22//4 23//4
f  23//4 22//4 24//4
f  25//5 24//5 26//5
f  24//5 25//5 23//5
f  26//6 22//6 27//6
f  22//6 26//6 24//6
f  27//7 20//7 28//7
f  20//7 27//7 22//7
f  28//8 18//8 29//8
f  18//8 28//8 20//8
f  18//9 30//9 29//9
f  30//9 18//9 16//9
f  13//10 30//10 16//10
f  30//10 13//10 31//10
f  15//11 31//11 13//11
f  31//11 15//11 32//11
f  14//12 32//12 15//12
f  32//12 14//12 33//12
f  11//13 1//13 6//13
f  1//13 11//13 34//13
f  34//13 11//13 10//13
f  34//13 4//13 1//13
f  34//13 10//13 7//13
f  9//14 8//14 35//14
f  12//14 35//14 8//14
f  35//14 3//14 2//14
f  3//14 35//14 5//14
f  5//14 35//14 12//14
f  33//15 17//15 36//15
f  17//15 33//15 14//15
f  11//1 5//1 12//1
f  5//1 11//1 6//1
f  36//16 19//16 37//16
f  19//16 36//16 17//16
f  32//17 9//17 35//17
f  9//17 32//17 33//17
f  9//17 33//17 36//17
f  9//17 36//17 7//17
f  7//17 36//17 37//17
f  7//17 37//17 38//17
f  7//17 38//17 25//17
f  7//17 25//17 26//17
f  7//17 26//17 34//17
f  4//18 35//18 2//18
f  35//18 4//18 30//18
f  30//18 4//18 29//18
f  29//18 4//18 28//18
f  28//18 4//18 27//18
f  27//18 4//18 26//18
f  26//18 4//18 34//18
f  35//18 30//18 31//18
f  35//18 31//18 32//18
f  19//19 38//19 37//19
f  38//19 19//19 21//19
f  21//20 25//20 38//20
f  25//20 21//20 23//20

