# File produced by Open Asset Import Library (http://www.assimp.sf.net)
# (assimp v3.1.187496374)

mtllib Monopoly-Hotel.obj.mtl

# 38 vertex positions
v  10.32 7.49336 16.077
v  10.901 6.98231 13.9595
v  10.32 7.49336 13.5721
v  10.901 6.98231 16.077
v  9.526 4.88709 16.077
v  8.732 5.07444 13.5722
v  9.526 4.88709 13.4303
v  8.732 5.07444 16.077
v  8.732 7.49336 13.5721
v  9.526 7.68071 16.077
v  9.526 7.68071 13.43
v  8.732 7.49336 16.077
v  11.114 6.2839 16.077
v  11.114 6.2839 14.489
v  10.32 5.07444 13.5722
v  10.32 5.07444 16.077
v  19.051 5.67761e-07 9.726
v  1.87274e-07 6.2839 14.489
v  3.74548e-07 0 9.726
v  10.901 5.58549 13.9596
v  19.051 6.2839 14.489
v  8.151 5.58549 13.9596
v  7.938 6.2839 14.489
v  10.901 5.58549 16.077
v  8.151 6.98231 13.9595
v  8.151 6.98231 16.077
v  0.00100076 0.660797 9.726
v  19.051 0.660797 9.726
v  19.051 11.7738 0
v  19.051 0.660797 0
v  19.051 11.7738 9.726
v  19.051 12.5678 9.726
v  -8.72537e-17 12.5678 9.726
v  0.00100043 11.7738 9.726
v  0.00100043 11.7738 0
v  0.00100076 0.660797 0
v  8.151 5.58549 16.077
v  7.938 6.2839 16.077

# 0 UV coordinates

# 20 vertex normals
vn 0.660461 0.750861 0
vn -0.229658 -0.973271 -2.81667e-19
vn -0.229658 0.973271 -2.81626e-19
vn 0.956505 0.291715 0
vn 0.229658 0.973271 -2.81626e-19
vn 0.229658 -0.973271 1.97167e-18
vn 1.80671e-08 -0.604055 0.796943
vn 0.660461 -0.750861 0
vn 0.956505 -0.291715 -1.17389e-08
vn -0.660461 0.750861 0
vn 0 0 -1
vn 1 2.98022e-08 0
vn -1 -3.2041e-08 -6.22331e-05
vn -0.660461 -0.750861 0
vn -0.956505 -0.291715 -1.22151e-08
vn -6.45927e-06 0.604057 0.796941
vn 0 0 1
vn -0.956505 0.291715 -2.38613e-18
vn -2.98022e-08 1 0
vn 2.98022e-08 -1 0

# Mesh 'Monopoly' with 72 faces
g Monopoly
usemtl DefaultMaterial
f  1//1 2//1 3//1
f  2//1 1//1 4//1
f  5//2 6//2 7//2
f  6//2 5//2 8//2
f  9//3 10//3 11//3
f  10//3 9//3 12//3
f  2//4 13//4 14//4
f  13//4 2//4 4//4
f  10//5 3//5 11//5
f  3//5 10//5 1//5
f  15//6 5//6 7//6
f  5//6 15//6 16//6
f  17//7 18//7 19//7
f  18//7 17//7 6//7
f  6//7 17//7 7//7
f  7//7 17//7 15//7
f  15//7 17//7 20//7
f  20//7 17//7 14//7
f  14//7 17//7 21//7
f  18//7 6//7 22//7
f  18//7 22//7 23//7
f  20//8 16//8 15//8
f  16//8 20//8 24//8
f  14//9 24//9 20//9
f  24//9 14//9 13//9
f  25//10 12//10 9//10
f  12//10 25//10 26//10
f  27//11 17//11 19//11
f  17//11 27//11 28//11
f  29//12 28//12 30//12
f  28//12 29//12 21//12
f  21//12 29//12 31//12
f  21//12 17//12 28//12
f  21//12 31//12 32//12
f  33//13 34//13 18//13
f  35//13 18//13 34//13
f  18//13 27//13 19//13
f  27//13 18//13 36//13
f  36//13 18//13 35//13
f  29//11 36//11 35//11
f  36//11 29//11 30//11
f  8//14 22//14 6//14
f  22//14 8//14 37//14
f  38//15 22//15 37//15
f  22//15 38//15 23//15
f  23//16 33//16 18//16
f  33//16 23//16 25//16
f  33//16 25//16 9//16
f  33//16 9//16 32//16
f  32//16 9//16 11//16
f  32//16 11//16 3//16
f  32//16 3//16 2//16
f  32//16 2//16 14//16
f  32//16 14//16 21//16
f  32//11 34//11 33//11
f  34//11 32//11 31//11
f  37//17 26//17 38//17
f  26//17 37//17 8//17
f  26//17 8//17 12//17
f  12//17 8//17 5//17
f  12//17 5//17 10//17
f  10//17 5//17 16//17
f  10//17 16//17 1//17
f  1//17 16//17 24//17
f  1//17 24//17 4//17
f  4//17 24//17 13//17
f  26//18 23//18 38//18
f  23//18 26//18 25//18
f  34//19 29//19 35//19
f  29//19 34//19 31//19
f  28//20 36//20 30//20
f  36//20 28//20 27//20

