# File produced by Open Asset Import Library (http://www.assimp.sf.net)
# (assimp v3.1.187496374)

mtllib Monopoly-TopHat.obj.mtl

# 192 vertex positions
v  5.4093 0.151991 1.04647e-15
v  8.17983 0.151991 0
v  6.79457 1.84297e-15 1.67436e-15
v  9.49919 0.600733 0
v  4.08994 0.600733 1.04647e-15
v  2.89928 1.32487 1.04647e-15
v  10.6899 1.32487 0
v  1.89395 2.28996 1.04647e-15
v  11.6952 2.28996 7.5346e-16
v  1.1218 3.45007 1.04647e-15
v  12.4673 3.45007 7.5346e-16
v  0.619565 4.75 1.04647e-15
v  12.9696 4.75 7.5346e-16
v  0.430992 5.52803 1.04647e-15
v  13.1581 5.52803 7.5346e-16
v  0.276222 6.31348 1.04647e-15
v  13.3129 6.31348 7.5346e-16
v  0.155545 7.10488 1.04647e-15
v  13.4336 7.10488 7.5346e-16
v  0.0691848 7.90076 1.04647e-15
v  13.5199 7.90076 7.5346e-16
v  0.0173043 8.69963 1.04647e-15
v  13.5718 8.69963 7.5346e-16
v  13.5891 9.5 7.5346e-16
v  -2.81997e-15 9.5 1.04647e-15
v  0.0173043 10.3004 1.04647e-15
v  13.5718 10.3004 7.5346e-16
v  13.5199 11.0992 7.5346e-16
v  0.0691848 11.0992 1.04647e-15
v  13.4336 11.8951 7.5346e-16
v  0.155545 11.8951 1.04647e-15
v  0.276222 12.6865 1.67436e-15
v  13.3129 12.6865 0
v  13.1581 13.472 0
v  0.430992 13.472 1.67436e-15
v  0.619565 14.25 1.67436e-15
v  12.9696 14.25 0
v  1.1218 15.5499 1.67436e-15
v  12.4673 15.5499 0
v  11.6952 16.71 0
v  1.89395 16.71 1.67436e-15
v  10.6899 17.6751 0
v  2.89928 17.6751 1.67436e-15
v  4.08994 18.3993 1.67436e-15
v  9.49919 18.3993 0
v  5.4093 18.848 1.67436e-15
v  8.17983 18.848 0
v  6.79457 19 1.67436e-15
v  11.6952 2.28996 1
v  6.79457 2.27017 1
v  10.6899 1.32487 1
v  7.68759 2.36815 1
v  12.4673 3.45007 1
v  1.89395 2.28996 1
v  5.90154 2.36815 1
v  4.08994 0.600733 1
v  9.49919 0.600733 1
v  2.89928 1.32487 1
v  1.1218 3.45007 1
v  5.051 2.65744 1
v  4.28342 3.12427 1
v  3.63533 3.74642 1
v  0.619565 4.75 1
v  3.13755 4.49429 1
v  2.77786 5.4253 1
v  0.430992 5.52803 1
v  2.63561 6.01217 1
v  0.276222 6.31348 1
v  2.49971 6.70188 1
v  0.155545 7.10488 1
v  2.39374 7.39682 1
v  0.0691848 7.90076 1
v  2.31791 8.09569 1
v  0.0173043 8.69963 1
v  2.27235 8.79719 1
v  -2.81997e-15 9.5 1
v  2.25716 9.5 1
v  0.0173043 10.3004 1
v  2.27235 10.2028 1
v  2.31791 10.9043 1
v  0.0691848 11.0992 1
v  2.39374 11.6032 1
v  0.155545 11.8951 1
v  2.49971 12.2981 1
v  0.276222 12.6865 1
v  2.63561 12.9878 1
v  0.430992 13.472 1
v  2.77786 13.5747 1
v  0.619565 14.25 1
v  3.13755 14.5057 1
v  1.1218 15.5499 1
v  3.63533 15.2536 1
v  4.28342 15.8757 1
v  1.89395 16.71 1
v  5.051 16.3426 1
v  5.90154 16.6318 1
v  6.79457 16.7298 1
v  2.89928 17.6751 1
v  7.68759 16.6318 1
v  11.6952 16.71 1
v  10.6899 17.6751 1
v  4.08994 18.3993 1
v  9.49919 18.3993 1
v  8.17983 18.848 1
v  5.4093 18.848 1
v  6.79457 19 1
v  9.30571 15.8757 1
v  12.4673 15.5499 1
v  8.53813 16.3426 1
v  9.9538 15.2536 1
v  10.4516 14.5057 1
v  12.9696 14.25 1
v  10.8113 13.5747 1
v  13.1581 13.472 1
v  10.9535 12.9878 1
v  13.3129 12.6865 1
v  11.0894 12.2981 1
v  13.4336 11.8951 1
v  11.1954 11.6032 1
v  13.5199 11.0992 1
v  11.2712 10.9043 1
v  13.5718 10.3004 1
v  11.3168 10.2028 1
v  13.5891 9.5 1
v  11.332 9.5 1
v  11.3168 8.79719 1
v  13.5718 8.69963 1
v  11.2712 8.09569 1
v  13.5199 7.90076 1
v  11.1954 7.39682 1
v  13.4336 7.10488 1
v  11.0894 6.70188 1
v  13.3129 6.31348 1
v  10.9535 6.01217 1
v  13.1581 5.52803 1
v  10.8113 5.4253 1
v  12.9696 4.75 1
v  10.4516 4.4943 1
v  9.9538 3.74642 1
v  9.30571 3.12427 1
v  8.53813 2.65744 1
v  5.4093 0.151991 1
v  8.17983 0.151991 1
v  6.79457 1.84297e-15 1
v  7.68759 2.36815 9.5
v  5.90154 2.36815 9.5
v  6.79457 2.27017 9.5
v  8.53813 2.65744 9.5
v  5.051 2.65744 9.5
v  9.30571 3.12427 9.5
v  4.28342 3.12427 9.5
v  9.9538 3.74642 9.5
v  3.63533 3.74642 9.5
v  3.13755 4.49429 9.5
v  10.4516 4.4943 9.5
v  2.77786 5.4253 9.5
v  10.8113 5.4253 9.5
v  10.9535 6.01217 9.5
v  2.63561 6.01217 9.5
v  2.49971 6.70188 9.5
v  11.0894 6.70188 9.5
v  2.39374 7.39682 9.5
v  11.1954 7.39682 9.5
v  11.2712 8.09569 9.5
v  2.31791 8.09569 9.5
v  2.27235 8.79719 9.5
v  11.3168 8.79719 9.5
v  2.25716 9.5 9.5
v  11.332 9.5 9.5
v  11.3168 10.2028 9.5
v  2.27235 10.2028 9.5
v  2.31791 10.9043 9.5
v  11.2712 10.9043 9.5
v  2.39374 11.6032 9.5
v  11.1954 11.6032 9.5
v  11.0894 12.2981 9.5
v  2.49971 12.2981 9.5
v  2.63561 12.9878 9.5
v  10.9535 12.9878 9.5
v  2.77786 13.5747 9.5
v  10.8113 13.5747 9.5
v  3.13755 14.5057 9.5
v  10.4516 14.5057 9.5
v  9.9538 15.2536 9.5
v  3.63533 15.2536 9.5
v  9.30571 15.8757 9.5
v  4.28342 15.8757 9.5
v  5.051 16.3426 9.5
v  8.53813 16.3426 9.5
v  7.68759 16.6318 9.5
v  5.90154 16.6318 9.5
v  6.79457 16.7298 9.5

# 0 UV coordinates

# 115 vertex normals
vn -6.51417e-17 7.90807e-18 -1
vn -3.75297e-17 -5.21023e-18 1
vn -0.999066 -0.0432207 -1.45881e-17
vn -0.999766 -0.0216154 -1.42645e-17
vn -0.999766 0.0216154 -1.35976e-17
vn -0.999066 0.0432207 -1.32545e-17
vn -0.996264 0.0863606 -1.255e-17
vn -0.9916 0.129339 -1.18219e-17
vn -0.985084 0.172076 -1.10718e-17
vn -0.976726 0.214491 -1.0301e-17
vn -0.971861 0.235553 -9.90829e-18
vn -0.932801 0.360392 -7.43811e-18
vn -0.88793 0.459978 -5.27652e-18
vn -0.76707 0.641564 -7.91043e-19
vn -0.609711 0.792624 3.73208e-18
vn -0.423341 0.90597 8.07762e-18
vn -0.216829 0.97621 5.08965e-18
vn -0.109065 0.994035 0
vn -0.216829 -0.97621 -9.10065e-18
vn -0.109065 -0.994035 9.9974e-19
vn -0.423341 -0.90597 -1.98756e-17
vn -0.609711 -0.792624 -2.07239e-17
vn -0.767069 -0.641564 -2.05861e-17
vn -0.88793 -0.459978 -1.94689e-17
vn -0.932801 -0.360392 -1.85578e-17
vn -0.971861 -0.235553 -1.71762e-17
vn -0.976726 -0.214491 -1.6919e-17
vn -0.985084 -0.172076 -1.63811e-17
vn -0.9916 -0.129339 -1.58126e-17
vn -0.996264 -0.0863607 -1.52146e-17
vn 0.109065 0.994035 -2.57602e-19
vn 0.216829 0.97621 1.03762e-18
vn 0.423341 0.90597 6.56204e-18
vn 0.609711 0.792624 1.47606e-17
vn 0.767069 0.641564 2.22569e-17
vn 0.88793 0.459978 2.86942e-17
vn 0.932801 0.360392 3.14176e-17
vn 0.999066 0.0432207 3.7203e-17
vn 0.999766 0.0216154 3.74534e-17
vn 0.999766 -0.0216154 3.79015e-17
vn 0.999066 -0.0432207 3.80991e-17
vn 0.996264 -0.0863606 3.84407e-17
vn 0.932801 -0.360392 3.88899e-17
vn 0.88793 -0.459978 3.82313e-17
vn 0.76707 -0.641564 3.5559e-17
vn 0.609711 -0.792624 3.11948e-17
vn 0.423341 -0.90597 2.53463e-17
vn 0.216829 -0.97621 1.09113e-17
vn 0.109065 -0.994035 -2.57602e-19
vn -5.72708e-17 -6.40196e-18 1
vn -0.996264 -0.0863607 -5.76097e-17
vn -0.999066 -0.0432207 -5.7494e-17
vn -0.9916 -0.129339 -5.76178e-17
vn -0.985084 -0.172076 -5.75182e-17
vn -0.976726 -0.214491 -5.73111e-17
vn -0.971861 -0.235553 -5.71673e-17
vn -0.88793 -0.459978 -5.37973e-17
vn -0.932801 -0.360392 -5.57295e-17
vn -0.767069 -0.641564 -4.8038e-17
vn -0.609711 -0.792624 -3.9993e-17
vn -0.423341 -0.90597 -3.00451e-17
vn -0.216829 -0.97621 -1.86676e-17
vn -0.109065 -0.994035 -1.261e-17
vn 0.109065 -0.994035 -1.1751e-19
vn 0.216829 -0.97621 6.16834e-18
vn 0.423341 -0.90597 1.84451e-17
vn 0.609711 -0.792624 2.98443e-17
vn 0.76707 -0.641564 3.98234e-17
vn 0.88793 -0.459978 4.79077e-17
vn 0.932801 -0.360392 5.11151e-17
vn 0.976726 -0.214491 5.45647e-17
vn 0.971861 -0.235553 5.41513e-17
vn 0.985084 -0.172076 5.53149e-17
vn 0.9916 -0.129339 5.59618e-17
vn 0.996264 -0.0863606 5.6504e-17
vn 0.999066 -0.0432207 5.69406e-17
vn 0.999766 -0.0216154 5.71191e-17
vn 0.999066 0.0432207 5.7494e-17
vn 0.999766 0.0216154 5.73958e-17
vn 0.996264 0.0863607 5.76097e-17
vn 0.9916 0.129339 5.76178e-17
vn 0.985084 0.172076 5.75182e-17
vn 0.976726 0.214491 5.73111e-17
vn 0.971861 0.235553 5.71673e-17
vn 0.88793 0.459978 5.37973e-17
vn 0.932801 0.360392 5.57295e-17
vn 0.767069 0.641564 4.8038e-17
vn 0.609711 0.792624 3.9993e-17
vn 0.423341 0.90597 3.00451e-17
vn 0.216829 0.97621 1.86676e-17
vn 0.109065 0.994035 1.261e-17
vn -0.216829 0.97621 -6.16834e-18
vn -0.109065 0.994035 1.1751e-19
vn -0.423341 0.90597 -1.84451e-17
vn -0.609711 0.792624 -2.98443e-17
vn -0.76707 0.641564 -3.98234e-17
vn -0.88793 0.459978 -4.79077e-17
vn -0.932801 0.360392 -5.11151e-17
vn -0.976726 0.214491 -5.45647e-17
vn -0.971861 0.235553 -5.41513e-17
vn -0.985084 0.172076 -5.53149e-17
vn -0.9916 0.129339 -5.59618e-17
vn -0.996264 0.0863606 -5.6504e-17
vn -0.999066 0.0432207 -5.69406e-17
vn -0.999766 0.0216154 -5.71191e-17
vn -0.999766 -0.0216154 -5.73958e-17
vn 0.976726 0.214491 3.45855e-17
vn 0.985084 0.172076 3.53402e-17
vn 0.971861 0.235553 3.41838e-17
vn 0.985084 -0.172076 3.8908e-17
vn 0.976726 -0.214491 3.90327e-17
vn 0.971861 -0.235553 3.90678e-17
vn 0.9916 -0.129339 3.87105e-17
vn 0.996264 0.0863607 3.66502e-17
vn 0.9916 0.129339 3.60288e-17

# Mesh 'Monopoly' with 380 faces
g Monopoly
usemtl DefaultMaterial
f  1//1 2//1 3//1
f  2//1 1//1 4//1
f  4//1 1//1 5//1
f  4//1 5//1 6//1
f  4//1 6//1 7//1
f  7//1 6//1 8//1
f  7//1 8//1 9//1
f  9//1 8//1 10//1
f  9//1 10//1 11//1
f  11//1 10//1 12//1
f  11//1 12//1 13//1
f  13//1 12//1 14//1
f  13//1 14//1 15//1
f  15//1 14//1 16//1
f  15//1 16//1 17//1
f  17//1 16//1 18//1
f  17//1 18//1 19//1
f  19//1 18//1 20//1
f  19//1 20//1 21//1
f  21//1 20//1 22//1
f  21//1 22//1 23//1
f  23//1 22//1 24//1
f  24//1 22//1 25//1
f  24//1 25//1 26//1
f  24//1 26//1 27//1
f  27//1 26//1 28//1
f  28//1 26//1 29//1
f  28//1 29//1 30//1
f  30//1 29//1 31//1
f  30//1 31//1 32//1
f  30//1 32//1 33//1
f  33//1 32//1 34//1
f  34//1 32//1 35//1
f  34//1 35//1 36//1
f  34//1 36//1 37//1
f  37//1 36//1 38//1
f  37//1 38//1 39//1
f  39//1 38//1 40//1
f  40//1 38//1 41//1
f  40//1 41//1 42//1
f  42//1 41//1 43//1
f  42//1 43//1 44//1
f  42//1 44//1 45//1
f  45//1 44//1 46//1
f  45//1 46//1 47//1
f  47//1 46//1 48//1
f  49//2 50//2 51//2
f  50//2 49//2 52//2
f  52//2 49//2 53//2
f  54//2 51//2 50//2
f  54//2 50//2 55//2
f  56//2 57//2 51//2
f  56//2 51//2 58//2
f  58//2 51//2 54//2
f  54//2 55//2 59//2
f  59//2 55//2 60//2
f  59//2 60//2 61//2
f  59//2 61//2 62//2
f  59//2 62//2 63//2
f  63//2 62//2 64//2
f  63//2 64//2 65//2
f  63//2 65//2 66//2
f  66//2 65//2 67//2
f  66//2 67//2 68//2
f  68//2 67//2 69//2
f  68//2 69//2 70//2
f  70//2 69//2 71//2
f  70//2 71//2 72//2
f  72//2 71//2 73//2
f  72//2 73//2 74//2
f  74//2 73//2 75//2
f  74//2 75//2 76//2
f  76//2 75//2 77//2
f  76//2 77//2 78//2
f  78//2 77//2 79//2
f  78//2 79//2 80//2
f  78//2 80//2 81//2
f  81//2 80//2 82//2
f  81//2 82//2 83//2
f  83//2 82//2 84//2
f  83//2 84//2 85//2
f  85//2 84//2 86//2
f  85//2 86//2 87//2
f  87//2 86//2 88//2
f  87//2 88//2 89//2
f  89//2 88//2 90//2
f  89//2 90//2 91//2
f  91//2 90//2 92//2
f  91//2 92//2 93//2
f  91//2 93//2 94//2
f  94//2 93//2 95//2
f  94//2 95//2 96//2
f  94//2 96//2 97//2
f  94//2 97//2 98//2
f  99//2 100//2 97//2
f  97//2 100//2 101//2
f  97//2 101//2 98//2
f  98//2 101//2 102//2
f  102//2 101//2 103//2
f  102//2 103//2 104//2
f  102//2 104//2 105//2
f  105//2 104//2 106//2
f  107//2 108//2 100//2
f  107//2 100//2 109//2
f  109//2 100//2 99//2
f  110//2 108//2 107//2
f  111//2 112//2 108//2
f  111//2 108//2 110//2
f  113//2 112//2 111//2
f  113//2 114//2 112//2
f  115//2 114//2 113//2
f  115//2 116//2 114//2
f  117//2 116//2 115//2
f  117//2 118//2 116//2
f  119//2 118//2 117//2
f  119//2 120//2 118//2
f  121//2 120//2 119//2
f  121//2 122//2 120//2
f  123//2 122//2 121//2
f  123//2 124//2 122//2
f  125//2 124//2 123//2
f  126//2 127//2 124//2
f  126//2 124//2 125//2
f  128//2 127//2 126//2
f  128//2 129//2 127//2
f  130//2 129//2 128//2
f  130//2 131//2 129//2
f  132//2 131//2 130//2
f  132//2 133//2 131//2
f  134//2 133//2 132//2
f  134//2 135//2 133//2
f  136//2 135//2 134//2
f  136//2 137//2 135//2
f  138//2 137//2 136//2
f  139//2 53//2 137//2
f  139//2 137//2 138//2
f  140//2 53//2 139//2
f  52//2 53//2 141//2
f  141//2 53//2 140//2
f  142//2 57//2 56//2
f  143//2 142//2 144//2
f  142//2 143//2 57//2
f  74//3 25//3 22//3
f  22//3 72//3 74//3
f  25//4 74//4 76//4
f  76//5 26//5 25//5
f  26//6 76//6 78//6
f  78//6 29//6 26//6
f  29//7 78//7 81//7
f  81//7 31//7 29//7
f  31//8 81//8 83//8
f  83//8 32//8 31//8
f  32//9 83//9 85//9
f  85//9 35//9 32//9
f  35//10 85//10 87//10
f  87//10 36//10 35//10
f  36//11 87//11 89//11
f  89//12 38//12 36//12
f  38//13 89//13 91//13
f  91//13 41//13 38//13
f  41//14 91//14 94//14
f  41//14 98//14 43//14
f  98//15 41//15 94//15
f  43//15 102//15 44//15
f  102//16 43//16 98//16
f  44//16 105//16 46//16
f  105//17 44//17 102//17
f  46//17 106//17 48//17
f  106//18 46//18 105//18
f  142//19 3//19 144//19
f  3//20 142//20 1//20
f  56//21 1//21 142//21
f  1//19 56//19 5//19
f  58//22 5//22 56//22
f  5//21 58//21 6//21
f  54//23 6//23 58//23
f  54//23 10//23 8//23
f  6//22 54//22 8//22
f  10//24 54//24 59//24
f  59//24 12//24 10//24
f  12//25 59//25 63//25
f  63//26 14//26 12//26
f  14//27 63//27 66//27
f  66//27 16//27 14//27
f  16//28 66//28 68//28
f  68//28 18//28 16//28
f  18//29 68//29 70//29
f  70//29 20//29 18//29
f  20//30 70//30 72//30
f  72//30 22//30 20//30
f  48//31 104//31 47//31
f  104//32 48//32 106//32
f  47//32 103//32 45//32
f  103//33 47//33 104//33
f  45//33 101//33 42//33
f  101//34 45//34 103//34
f  42//34 100//34 40//34
f  100//35 42//35 101//35
f  100//35 39//35 40//35
f  39//36 100//36 108//36
f  108//36 37//36 39//36
f  37//37 108//37 112//37
f  122//38 24//38 27//38
f  27//38 120//38 122//38
f  24//39 122//39 124//39
f  124//40 23//40 24//40
f  23//41 124//41 127//41
f  127//41 21//41 23//41
f  21//42 127//42 129//42
f  129//42 19//42 21//42
f  137//43 11//43 13//43
f  11//44 137//44 53//44
f  53//44 9//44 11//44
f  9//45 53//45 49//45
f  9//45 51//45 7//45
f  51//46 9//46 49//46
f  57//47 7//47 51//47
f  7//46 57//46 4//46
f  143//48 4//48 57//48
f  4//47 143//47 2//47
f  144//49 2//49 143//49
f  2//48 144//48 3//48
f  145//50 146//50 147//50
f  146//50 145//50 148//50
f  146//50 148//50 149//50
f  149//50 148//50 150//50
f  149//50 150//50 151//50
f  151//50 150//50 152//50
f  151//50 152//50 153//50
f  153//50 152//50 154//50
f  154//50 152//50 155//50
f  154//50 155//50 156//50
f  156//50 155//50 157//50
f  156//50 157//50 158//50
f  156//50 158//50 159//50
f  159//50 158//50 160//50
f  160//50 158//50 161//50
f  160//50 161//50 162//50
f  162//50 161//50 163//50
f  162//50 163//50 164//50
f  162//50 164//50 165//50
f  165//50 164//50 166//50
f  166//50 164//50 167//50
f  166//50 167//50 168//50
f  168//50 167//50 169//50
f  168//50 169//50 170//50
f  168//50 170//50 171//50
f  171//50 170//50 172//50
f  172//50 170//50 173//50
f  172//50 173//50 174//50
f  174//50 173//50 175//50
f  174//50 175//50 176//50
f  174//50 176//50 177//50
f  177//50 176//50 178//50
f  178//50 176//50 179//50
f  178//50 179//50 180//50
f  180//50 179//50 181//50
f  180//50 181//50 182//50
f  182//50 181//50 183//50
f  182//50 183//50 184//50
f  182//50 184//50 185//50
f  185//50 184//50 186//50
f  185//50 186//50 187//50
f  187//50 186//50 188//50
f  188//50 186//50 189//50
f  188//50 189//50 190//50
f  188//50 190//50 191//50
f  191//50 190//50 192//50
f  165//51 75//51 73//51
f  73//51 162//51 165//51
f  75//52 165//52 166//52
f  166//52 77//52 75//52
f  162//53 73//53 71//53
f  71//53 160//53 162//53
f  160//54 71//54 69//54
f  69//54 159//54 160//54
f  159//55 69//55 67//55
f  67//55 156//55 159//55
f  156//56 67//56 65//56
f  154//57 65//57 64//57
f  64//57 153//57 154//57
f  65//58 154//58 156//58
f  153//59 64//59 62//59
f  153//59 61//59 151//59
f  61//60 153//60 62//60
f  151//60 60//60 149//60
f  60//61 151//61 61//61
f  149//61 55//61 146//61
f  55//62 149//62 60//62
f  146//62 50//62 147//62
f  50//63 146//63 55//63
f  147//64 52//64 145//64
f  52//65 147//65 50//65
f  145//65 141//65 148//65
f  141//66 145//66 52//66
f  148//66 140//66 150//66
f  140//67 148//67 141//67
f  150//67 139//67 152//67
f  139//68 150//68 140//68
f  139//68 155//68 152//68
f  155//69 139//69 138//69
f  138//69 157//69 155//69
f  157//70 138//70 136//70
f  158//71 136//71 134//71
f  134//71 161//71 158//71
f  136//72 158//72 157//72
f  161//73 134//73 132//73
f  132//73 163//73 161//73
f  163//74 132//74 130//74
f  130//74 164//74 163//74
f  164//75 130//75 128//75
f  128//75 167//75 164//75
f  167//76 128//76 126//76
f  126//76 169//76 167//76
f  169//77 126//77 125//77
f  170//78 125//78 123//78
f  123//78 173//78 170//78
f  125//79 170//79 169//79
f  173//80 123//80 121//80
f  121//80 175//80 173//80
f  175//81 121//81 119//81
f  119//81 176//81 175//81
f  176//82 119//82 117//82
f  117//82 179//82 176//82
f  179//83 117//83 115//83
f  115//83 181//83 179//83
f  181//84 115//84 113//84
f  183//85 113//85 111//85
f  111//85 184//85 183//85
f  113//86 183//86 181//86
f  184//87 111//87 110//87
f  184//87 107//87 186//87
f  107//88 184//88 110//88
f  109//89 186//89 107//89
f  186//88 109//88 189//88
f  99//90 189//90 109//90
f  189//89 99//89 190//89
f  97//91 190//91 99//91
f  190//90 97//90 192//90
f  96//92 192//92 97//92
f  192//93 96//93 191//93
f  95//94 191//94 96//94
f  191//92 95//92 188//92
f  93//95 188//95 95//95
f  188//94 93//94 187//94
f  92//96 187//96 93//96
f  92//96 182//96 185//96
f  187//95 92//95 185//95
f  182//97 92//97 90//97
f  90//97 180//97 182//97
f  180//98 90//98 88//98
f  178//99 88//99 86//99
f  86//99 177//99 178//99
f  88//100 178//100 180//100
f  177//101 86//101 84//101
f  84//101 174//101 177//101
f  174//102 84//102 82//102
f  82//102 172//102 174//102
f  172//103 82//103 80//103
f  80//103 171//103 172//103
f  171//104 80//104 79//104
f  79//104 168//104 171//104
f  168//105 79//105 77//105
f  77//106 166//106 168//106
f  114//107 33//107 34//107
f  34//107 112//107 114//107
f  33//108 114//108 116//108
f  116//108 30//108 33//108
f  112//109 34//109 37//109
f  133//110 15//110 17//110
f  17//110 131//110 133//110
f  15//111 133//111 135//111
f  135//111 13//111 15//111
f  13//112 135//112 137//112
f  131//113 17//113 19//113
f  19//113 129//113 131//113
f  120//114 27//114 28//114
f  28//114 118//114 120//114
f  118//115 28//115 30//115
f  30//115 116//115 118//115

